<svg width="111" height="46" viewBox="0 0 111 46" fill="none" xmlns="http://www.w3.org/2000/svg">
<rect width="33.3333" height="22.2222" rx="2" fill="white"/>
<path d="M19.245 24.7554C17.6154 24.7554 16.1487 24.4147 14.845 23.7332C13.5561 23.0369 12.5413 22.0739 11.8006 20.8443C11.0598 19.6147 10.6895 18.2221 10.6895 16.6665C10.6895 15.111 11.0598 13.7184 11.8006 12.4887C12.5413 11.2591 13.5561 10.3036 14.845 9.62208C16.1487 8.92578 17.6154 8.57764 19.245 8.57764C20.6672 8.57764 21.9487 8.82949 23.0895 9.33319C24.2302 9.8369 25.1783 10.5628 25.9339 11.511L23.1339 14.0443C22.1265 12.8295 20.9043 12.2221 19.4672 12.2221C18.6228 12.2221 17.8672 12.4073 17.2006 12.7776C16.5487 13.148 16.0376 13.6739 15.6672 14.3554C15.3117 15.0221 15.1339 15.7925 15.1339 16.6665C15.1339 17.5406 15.3117 18.3184 15.6672 18.9999C16.0376 19.6665 16.5487 20.185 17.2006 20.5554C17.8672 20.9258 18.6228 21.111 19.4672 21.111C20.9043 21.111 22.1265 20.5036 23.1339 19.2887L25.9339 21.8221C25.1783 22.7702 24.2302 23.4962 23.0895 23.9999C21.9487 24.5036 20.6672 24.7554 19.245 24.7554Z" fill="white"/>
<path d="M34.2105 18.4887H32.2105V24.4443H27.8327V8.88875H32.2105V14.9332H34.3216L38.0327 8.88875H42.6549L37.7882 16.3999L42.6993 24.4443H37.7438L34.2105 18.4887Z" fill="white"/>
<path d="M59.2575 8.88875L52.8131 20.911C52.1316 22.1999 51.2945 23.1776 50.302 23.8443C49.3242 24.511 48.2501 24.8443 47.0797 24.8443C46.2205 24.8443 45.302 24.6517 44.3242 24.2665L45.3686 21.0221C45.976 21.1999 46.4945 21.2887 46.9242 21.2887C47.3538 21.2887 47.7316 21.1925 48.0575 20.9999C48.3983 20.8073 48.7094 20.5036 48.9908 20.0887L42.9464 8.88875H47.5908L51.2131 16.3999L54.9686 8.88875H59.2575Z" fill="white"/>
<path d="M75.269 8.88875V24.4443H70.9134V12.3776H65.0023V24.4443H60.669V8.88875H75.269Z" fill="white"/>
<path d="M84.8832 18.4887H82.8832V24.4443H78.5054V8.88875H82.8832V14.9332H84.9943L88.7054 8.88875H93.3276L88.461 16.3999L93.3721 24.4443H88.4165L84.8832 18.4887Z" fill="white"/>
<path d="M105.148 21.4221H98.5702L97.348 24.4443H92.8591L99.7257 8.88875H104.059L110.948 24.4443H106.37L105.148 21.4221ZM103.859 18.1776L101.859 13.1999L99.8591 18.1776H103.859Z" fill="white"/>
<mask id="mask0" mask-type="alpha" maskUnits="userSpaceOnUse" x="0" y="0" width="34" height="23">
<rect width="33.3333" height="22.2222" fill="white"/>
</mask>
<g mask="url(#mask0)">
<path d="M19.245 24.7554C17.6154 24.7554 16.1487 24.4147 14.845 23.7332C13.5561 23.0369 12.5413 22.0739 11.8006 20.8443C11.0598 19.6147 10.6895 18.2221 10.6895 16.6665C10.6895 15.111 11.0598 13.7184 11.8006 12.4887C12.5413 11.2591 13.5561 10.3036 14.845 9.62208C16.1487 8.92578 17.6154 8.57764 19.245 8.57764C20.6672 8.57764 21.9487 8.82949 23.0895 9.33319C24.2302 9.8369 25.1783 10.5628 25.9339 11.511L23.1339 14.0443C22.1265 12.8295 20.9043 12.2221 19.4672 12.2221C18.6228 12.2221 17.8672 12.4073 17.2006 12.7776C16.5487 13.148 16.0376 13.6739 15.6672 14.3554C15.3117 15.0221 15.1339 15.7925 15.1339 16.6665C15.1339 17.5406 15.3117 18.3184 15.6672 18.9999C16.0376 19.6665 16.5487 20.185 17.2006 20.5554C17.8672 20.9258 18.6228 21.111 19.4672 21.111C20.9043 21.111 22.1265 20.5036 23.1339 19.2887L25.9339 21.8221C25.1783 22.7702 24.2302 23.4962 23.0895 23.9999C21.9487 24.5036 20.6672 24.7554 19.245 24.7554Z" fill="#1E1E1E"/>
<path d="M34.2105 18.4887H32.2105V24.4443H27.8327V8.88875H32.2105V14.9332H34.3216L38.0327 8.88875H42.6549L37.7882 16.3999L42.6993 24.4443H37.7438L34.2105 18.4887Z" fill="#1E1E1E"/>
</g>
<path d="M5.62669 43.4397C4.69336 43.4397 3.84891 43.2353 3.09336 42.8264C2.34669 42.4086 1.76003 41.8397 1.33336 41.1197C0.906693 40.3908 0.693359 39.5731 0.693359 38.6664C0.693359 37.7597 0.906693 36.9464 1.33336 36.2264C1.76003 35.4975 2.35114 34.9286 3.10669 34.5197C3.86225 34.102 4.70669 33.8931 5.64003 33.8931C6.36891 33.8931 7.03558 34.0175 7.64003 34.2664C8.24447 34.5064 8.76003 34.8664 9.18669 35.3464L8.32003 36.1864C7.6178 35.4486 6.74225 35.0797 5.69336 35.0797C5.00003 35.0797 4.37336 35.2353 3.81336 35.5464C3.25336 35.8575 2.81336 36.2886 2.49336 36.8397C2.18225 37.382 2.02669 37.9908 2.02669 38.6664C2.02669 39.342 2.18225 39.9553 2.49336 40.5064C2.81336 41.0486 3.25336 41.4753 3.81336 41.7864C4.37336 42.0975 5.00003 42.2531 5.69336 42.2531C6.73336 42.2531 7.60891 41.8797 8.32003 41.1331L9.18669 41.9731C8.76003 42.4531 8.24003 42.8175 7.62669 43.0664C7.02225 43.3153 6.35558 43.4397 5.62669 43.4397Z" fill="#AFAFAF"/>
<path d="M13.557 40.3464H12.0903V43.3331H10.8103V36.2664H12.0903V39.2531H13.5837L15.877 36.2664H17.2503L14.5703 39.6664L17.437 43.3331H15.9303L13.557 40.3464Z" fill="#AFAFAF"/>
<path d="M24.6821 36.2664L21.2554 44.0397C20.9532 44.7597 20.5977 45.2664 20.1888 45.5597C19.7888 45.8531 19.3043 45.9997 18.7354 45.9997C18.3888 45.9997 18.051 45.942 17.7221 45.8264C17.4021 45.7197 17.1354 45.5597 16.9221 45.3464L17.4688 44.3864C17.8332 44.7331 18.2554 44.9064 18.7354 44.9064C19.0466 44.9064 19.3043 44.822 19.5088 44.6531C19.7221 44.4931 19.9132 44.2131 20.0821 43.8131L20.3088 43.3197L17.1888 36.2664H18.5221L20.9888 41.9197L23.4288 36.2664H24.6821Z" fill="#AFAFAF"/>
<path d="M32.5393 36.2664V43.3331H31.2593V37.3864H27.2726V43.3331H25.9926V36.2664H32.5393Z" fill="#AFAFAF"/>
<path d="M37.7627 40.3464H36.2961V43.3331H35.0161V36.2664H36.2961V39.2531H37.7894L40.0827 36.2664H41.4561L38.7761 39.6664L41.6427 43.3331H40.1361L37.7627 40.3464Z" fill="#AFAFAF"/>
<path d="M45.3746 36.1997C46.3524 36.1997 47.0991 36.4397 47.6146 36.9197C48.1391 37.3997 48.4013 38.1153 48.4013 39.0664V43.3331H47.1879V42.3997C46.9746 42.7286 46.6679 42.982 46.2679 43.1597C45.8768 43.3286 45.4102 43.4131 44.8679 43.4131C44.0768 43.4131 43.4413 43.222 42.9613 42.8397C42.4902 42.4575 42.2546 41.9553 42.2546 41.3331C42.2546 40.7108 42.4813 40.2131 42.9346 39.8397C43.3879 39.4575 44.1079 39.2664 45.0946 39.2664H47.1213V39.0131C47.1213 38.462 46.9613 38.0397 46.6413 37.7464C46.3213 37.4531 45.8502 37.3064 45.2279 37.3064C44.8102 37.3064 44.4013 37.3775 44.0013 37.5197C43.6013 37.6531 43.2635 37.8353 42.9879 38.0664L42.4546 37.1064C42.819 36.8131 43.2546 36.5908 43.7613 36.4397C44.2679 36.2797 44.8057 36.1997 45.3746 36.1997ZM45.0813 42.4264C45.5702 42.4264 45.9924 42.3197 46.3479 42.1064C46.7035 41.8842 46.9613 41.5731 47.1213 41.1731V40.1864H45.1479C44.0635 40.1864 43.5213 40.5508 43.5213 41.2797C43.5213 41.6353 43.6591 41.9153 43.9346 42.1197C44.2102 42.3242 44.5924 42.4264 45.0813 42.4264Z" fill="#AFAFAF"/>
<path d="M59.5536 37.3864H56.9669V43.3331H55.6869V37.3864H53.1002V36.2664H59.5536V37.3864Z" fill="#AFAFAF"/>
<path d="M66.9366 39.8397C66.9366 39.9375 66.9277 40.0664 66.9099 40.2264H61.1766C61.2566 40.8486 61.5277 41.3508 61.9899 41.7331C62.461 42.1064 63.0433 42.2931 63.7366 42.2931C64.581 42.2931 65.261 42.0086 65.7766 41.4397L66.4833 42.2664C66.1633 42.6397 65.7633 42.9242 65.2832 43.1197C64.8121 43.3153 64.2833 43.4131 63.6966 43.4131C62.9499 43.4131 62.2877 43.262 61.7099 42.9597C61.1321 42.6486 60.6833 42.2175 60.3633 41.6664C60.0521 41.1153 59.8966 40.4931 59.8966 39.7997C59.8966 39.1153 60.0477 38.4975 60.3499 37.9464C60.661 37.3953 61.0833 36.9686 61.6166 36.6664C62.1588 36.3553 62.7677 36.1997 63.4433 36.1997C64.1188 36.1997 64.7188 36.3553 65.2432 36.6664C65.7766 36.9686 66.1899 37.3953 66.4833 37.9464C66.7855 38.4975 66.9366 39.1286 66.9366 39.8397ZM63.4433 37.2797C62.8299 37.2797 62.3144 37.4664 61.8966 37.8397C61.4877 38.2131 61.2477 38.702 61.1766 39.3064H65.7099C65.6388 38.7108 65.3944 38.2264 64.9766 37.8531C64.5677 37.4708 64.0566 37.2797 63.4433 37.2797Z" fill="#AFAFAF"/>
<path d="M73.1403 43.3331L71.1003 40.6264L69.0337 43.3331H67.607L70.3937 39.7197L67.7403 36.2664H69.167L71.1137 38.8131L73.047 36.2664H74.447L71.7803 39.7197L74.5937 43.3331H73.1403Z" fill="#AFAFAF"/>
<path d="M75.9405 36.2664H77.2205V39.2664H81.2472V36.2664H82.5272V43.3331H81.2472V40.3731H77.2205V43.3331H75.9405V36.2664Z" fill="#AFAFAF"/>
<path d="M85.0161 36.2664H86.2961V41.4131L90.6294 36.2664H91.7894V43.3331H90.5094V38.1864L86.1894 43.3331H85.0161V36.2664Z" fill="#AFAFAF"/>
<path d="M97.0205 40.3464H95.5539V43.3331H94.2739V36.2664H95.5539V39.2531H97.0472L99.3405 36.2664H100.714L98.0339 39.6664L100.901 43.3331H99.3939L97.0205 40.3464Z" fill="#AFAFAF"/>
<path d="M102.243 36.2664H103.523V41.4131L107.856 36.2664H109.016V43.3331H107.736V38.1864L103.416 43.3331H102.243V36.2664Z" fill="#AFAFAF"/>
</svg>
