<svg width="26" height="26" viewBox="0 0 26 26" fill="none" xmlns="http://www.w3.org/2000/svg">
<path d="M23 0C22.1221 0 3.87786 0 3 0C1.3458 0 0 1.3458 0 3C0 3.87786 0 22.1221 0 23C0 24.6542 1.3458 26 3 26C3.87786 26 22.1221 26 23 26C24.6542 26 26 24.6542 26 23C26 22.1221 26 3.87786 26 3C26 1.3458 24.6542 0 23 0ZM12 24H3C2.44862 24 2.00002 23.5514 2.00002 23V14H12V24ZM12 12H2.00002V3C2.00002 2.44862 2.44862 2.00002 3 2.00002H12V12ZM24 23C24 23.5514 23.5514 24 23 24H14V14H24V23ZM24 12H14V2.00002H23C23.5514 2.00002 24 2.44862 24 3V12Z" fill="#2B2B2B"/>
<path d="M9.03947 6H8.00018V4.96071C8.00018 4.40847 7.55244 3.96073 7.00019 3.96073C6.44795 3.96073 6.00021 4.40847 6.00021 4.96071V6H4.96092C4.40868 6 3.96094 6.44774 3.96094 6.99998C3.96094 7.55223 4.40868 7.99997 4.96092 7.99997H6.00021V9.03926C6.00021 9.5915 6.44795 10.0392 7.00019 10.0392C7.55244 10.0392 8.00018 9.5915 8.00018 9.03926V7.99997H9.03947C9.59171 7.99997 10.0395 7.55223 10.0395 6.99998C10.0395 6.44774 9.59171 6 9.03947 6Z" fill="#2B2B2B"/>
<path d="M21.0395 6.00001H16.9609C16.4087 6.00001 15.9609 6.44775 15.9609 6.99999C15.9609 7.55224 16.4087 7.99998 16.9609 7.99998H21.0395C21.5917 7.99998 22.0395 7.55224 22.0395 6.99999C22.0395 6.44775 21.5917 6.00001 21.0395 6.00001Z" fill="#2B2B2B"/>
<path d="M21.0395 19.442H16.9609C16.4087 19.442 15.9609 19.8897 15.9609 20.442C15.9609 20.9942 16.4087 21.442 16.9609 21.442H21.0395C21.5917 21.442 22.0395 20.9942 22.0395 20.442C22.0395 19.8897 21.5917 19.442 21.0395 19.442Z" fill="#2B2B2B"/>
<path d="M21.0395 16.558H16.9609C16.4087 16.558 15.9609 17.0057 15.9609 17.558C15.9609 18.1102 16.4087 18.558 16.9609 18.558H21.0395C21.5917 18.558 22.0395 18.1102 22.0395 17.558C22.0395 17.0057 21.5917 16.558 21.0395 16.558Z" fill="#2B2B2B"/>
<path d="M8.41376 19L9.14861 18.2652C9.53912 17.8747 9.53912 17.2414 9.14861 16.851C8.75816 16.4605 8.12496 16.4605 7.73441 16.851L6.99955 17.5858L6.26474 16.8509C5.87424 16.4604 5.2411 16.4604 4.85054 16.8509C4.45998 17.2414 4.45998 17.8745 4.85054 18.2651L5.58534 19.0001L4.85049 19.7349C4.46003 20.1254 4.46003 20.7586 4.85049 21.1491C5.24099 21.5396 5.87413 21.5396 6.26469 21.1491L6.99955 20.4143L7.73435 21.1492C8.12481 21.5396 8.75795 21.5398 9.14856 21.1492C9.53907 20.7587 9.53907 20.1255 9.14856 19.735L8.41376 19Z" fill="#2B2B2B"/>
</svg>
