<svg width="32" height="32" viewBox="0 0 32 32" fill="none" xmlns="http://www.w3.org/2000/svg">
<path d="M32 16C32 24.8366 24.8366 32 16 32C7.16344 32 0 24.8366 0 16C0 7.16344 7.16344 0 16 0C24.8366 0 32 7.16344 32 16Z" fill="#1E1E1E"/>
<path d="M16 8C11.5813 8 8 11.5813 8 16C8 20.4187 11.5813 24 16 24C20.4187 24 24 20.4187 24 16C24 11.5813 20.4187 8 16 8ZM19.7625 14.4313L15.9062 18.2875L15.1875 19.0063C14.7906 19.4031 14.1469 19.4031 13.75 19.0063L12.2344 17.4875C12.0344 17.2906 11.9375 17.0281 11.9375 16.7688C11.9375 16.5094 12.0375 16.25 12.2344 16.05C12.6312 15.6531 13.275 15.6531 13.6719 16.05L14.4719 16.85L18.3281 12.9938C18.725 12.5969 19.3687 12.5969 19.7656 12.9938C20.1594 13.3906 20.1594 14.0344 19.7625 14.4313Z" fill="white"/>
</svg>
