<svg width="246" height="66" viewBox="0 0 246 66" fill="none" xmlns="http://www.w3.org/2000/svg">
<rect width="246" height="66" rx="8" fill="#EEF302"/>
<path d="M63 20C62.1221 20 43.8779 20 43 20C41.3458 20 40 21.3458 40 23C40 23.8779 40 42.1221 40 43C40 44.6542 41.3458 46 43 46C43.8779 46 62.1221 46 63 46C64.6542 46 66 44.6542 66 43C66 42.1221 66 23.8779 66 23C66 21.3458 64.6542 20 63 20ZM52 44H43C42.4486 44 42 43.5514 42 43V34H52V44ZM52 32H42V23C42 22.4486 42.4486 22 43 22H52V32ZM64 43C64 43.5514 63.5514 44 63 44H54V34H64V43ZM64 32H54V22H63C63.5514 22 64 22.4486 64 23V32Z" fill="#2B2B2B"/>
<path d="M49.0395 26H48.0002V24.9607C48.0002 24.4085 47.5524 23.9607 47.0002 23.9607C46.4479 23.9607 46.0002 24.4085 46.0002 24.9607V26H44.9609C44.4087 26 43.9609 26.4477 43.9609 27C43.9609 27.5522 44.4087 28 44.9609 28H46.0002V29.0393C46.0002 29.5915 46.4479 30.0392 47.0002 30.0392C47.5524 30.0392 48.0002 29.5915 48.0002 29.0393V28H49.0395C49.5917 28 50.0395 27.5522 50.0395 27C50.0395 26.4477 49.5917 26 49.0395 26Z" fill="#2B2B2B"/>
<path d="M61.0395 26H56.9609C56.4087 26 55.9609 26.4477 55.9609 27C55.9609 27.5522 56.4087 28 56.9609 28H61.0395C61.5917 28 62.0395 27.5522 62.0395 27C62.0395 26.4477 61.5917 26 61.0395 26Z" fill="#2B2B2B"/>
<path d="M61.0395 39.442H56.9609C56.4087 39.442 55.9609 39.8897 55.9609 40.442C55.9609 40.9942 56.4087 41.442 56.9609 41.442H61.0395C61.5917 41.442 62.0395 40.9942 62.0395 40.442C62.0395 39.8897 61.5917 39.442 61.0395 39.442Z" fill="#2B2B2B"/>
<path d="M61.0395 36.558H56.9609C56.4087 36.558 55.9609 37.0057 55.9609 37.558C55.9609 38.1102 56.4087 38.558 56.9609 38.558H61.0395C61.5917 38.558 62.0395 38.1102 62.0395 37.558C62.0395 37.0057 61.5917 36.558 61.0395 36.558Z" fill="#2B2B2B"/>
<path d="M48.4138 39L49.1486 38.2652C49.5391 37.8747 49.5391 37.2414 49.1486 36.851C48.7582 36.4605 48.125 36.4605 47.7344 36.851L46.9995 37.5858L46.2647 36.8509C45.8742 36.4604 45.2411 36.4604 44.8505 36.8509C44.46 37.2414 44.46 37.8745 44.8505 38.2651L45.5853 39.0001L44.8505 39.7349C44.46 40.1254 44.46 40.7586 44.8505 41.1491C45.241 41.5396 45.8741 41.5396 46.2647 41.1491L46.9995 40.4143L47.7344 41.1492C48.1248 41.5396 48.758 41.5398 49.1486 41.1492C49.5391 40.7587 49.5391 40.1255 49.1486 39.735L48.4138 39Z" fill="#2B2B2B"/>
<path d="M84.752 39.16C83.6107 39.16 82.5813 38.9147 81.664 38.424C80.7467 37.9227 80.0267 37.2347 79.504 36.36C78.9813 35.4747 78.72 34.488 78.72 33.4C78.72 32.312 78.9813 31.3307 79.504 30.456C80.0267 29.5707 80.7467 28.8827 81.664 28.392C82.5813 27.8907 83.6107 27.64 84.752 27.64C85.8933 27.64 86.9227 27.8907 87.84 28.392C88.7573 28.8827 89.4773 29.5653 90 30.44C90.5227 31.3147 90.784 32.3013 90.784 33.4C90.784 34.4987 90.5227 35.4853 90 36.36C89.4773 37.2347 88.7573 37.9227 87.84 38.424C86.9227 38.9147 85.8933 39.16 84.752 39.16ZM84.752 37.336C85.4987 37.336 86.1707 37.1707 86.768 36.84C87.3653 36.4987 87.8347 36.0293 88.176 35.432C88.5173 34.824 88.688 34.1467 88.688 33.4C88.688 32.6533 88.5173 31.9813 88.176 31.384C87.8347 30.776 87.3653 30.3067 86.768 29.976C86.1707 29.6347 85.4987 29.464 84.752 29.464C84.0053 29.464 83.3333 29.6347 82.736 29.976C82.1387 30.3067 81.6693 30.776 81.328 31.384C80.9867 31.9813 80.816 32.6533 80.816 33.4C80.816 34.1467 80.9867 34.824 81.328 35.432C81.6693 36.0293 82.1387 36.4987 82.736 36.84C83.3333 37.1707 84.0053 37.336 84.752 37.336ZM102.236 37.304V40.968H100.364V39H92.8596V30.456H94.8596V37.304H98.9396V30.456H100.94V37.304H102.236ZM112.016 34.776C112.016 34.9147 112.005 35.112 111.984 35.368H105.28C105.397 35.9973 105.701 36.4987 106.192 36.872C106.693 37.2347 107.312 37.416 108.048 37.416C108.987 37.416 109.76 37.1067 110.368 36.488L111.44 37.72C111.056 38.1787 110.571 38.5253 109.984 38.76C109.397 38.9947 108.736 39.112 108 39.112C107.061 39.112 106.235 38.9253 105.52 38.552C104.805 38.1787 104.251 37.6613 103.856 37C103.472 36.328 103.28 35.5707 103.28 34.728C103.28 33.896 103.467 33.1493 103.84 32.488C104.224 31.816 104.752 31.2933 105.424 30.92C106.096 30.5467 106.853 30.36 107.696 30.36C108.528 30.36 109.269 30.5467 109.92 30.92C110.581 31.2827 111.093 31.8 111.456 32.472C111.829 33.1333 112.016 33.9013 112.016 34.776ZM107.696 31.96C107.056 31.96 106.512 32.152 106.064 32.536C105.627 32.9093 105.36 33.4107 105.264 34.04H110.112C110.027 33.4213 109.765 32.92 109.328 32.536C108.891 32.152 108.347 31.96 107.696 31.96ZM114.203 30.456H116.203V33.928H120.507V30.456H122.507V39H120.507V35.624H116.203V39H114.203V30.456ZM125.188 30.456H127.188V36.088L131.908 30.456H133.732V39H131.732V33.368L127.028 39H125.188V30.456ZM143.19 32.152H140.198V39H138.198V32.152H135.19V30.456H143.19V32.152ZM148.929 33.272C150.017 33.272 150.849 33.5173 151.425 34.008C152.012 34.4987 152.305 35.192 152.305 36.088C152.305 37.0267 151.985 37.752 151.345 38.264C150.705 38.776 149.804 39.0267 148.641 39.016L144.641 39V30.456H146.641V33.256L148.929 33.272ZM148.465 37.544C149.052 37.5547 149.5 37.432 149.809 37.176C150.118 36.92 150.273 36.5467 150.273 36.056C150.273 35.576 150.124 35.224 149.825 35C149.526 34.776 149.073 34.6587 148.465 34.648L146.641 34.632V37.528L148.465 37.544ZM165.253 32.152H162.261V39H160.261V32.152H157.253V30.456H165.253V32.152ZM170.136 39.112C169.272 39.112 168.494 38.9253 167.8 38.552C167.107 38.1787 166.563 37.6613 166.168 37C165.784 36.328 165.592 35.5707 165.592 34.728C165.592 33.8853 165.784 33.1333 166.168 32.472C166.563 31.8107 167.107 31.2933 167.8 30.92C168.494 30.5467 169.272 30.36 170.136 30.36C171.011 30.36 171.795 30.5467 172.488 30.92C173.182 31.2933 173.72 31.8107 174.104 32.472C174.499 33.1333 174.696 33.8853 174.696 34.728C174.696 35.5707 174.499 36.328 174.104 37C173.72 37.6613 173.182 38.1787 172.488 38.552C171.795 38.9253 171.011 39.112 170.136 39.112ZM170.136 37.4C170.872 37.4 171.48 37.1547 171.96 36.664C172.44 36.1733 172.68 35.528 172.68 34.728C172.68 33.928 172.44 33.2827 171.96 32.792C171.48 32.3013 170.872 32.056 170.136 32.056C169.4 32.056 168.792 32.3013 168.312 32.792C167.843 33.2827 167.608 33.928 167.608 34.728C167.608 35.528 167.843 36.1733 168.312 36.664C168.792 37.1547 169.4 37.4 170.136 37.4ZM182.864 34.552C183.92 34.872 184.448 35.5547 184.448 36.6C184.448 37.368 184.16 37.96 183.584 38.376C183.008 38.792 182.155 39 181.024 39H176.672V30.456H180.848C181.893 30.456 182.709 30.648 183.296 31.032C183.883 31.416 184.176 31.96 184.176 32.664C184.176 33.1013 184.059 33.48 183.824 33.8C183.6 34.12 183.28 34.3707 182.864 34.552ZM178.576 34.024H180.672C181.707 34.024 182.224 33.6667 182.224 32.952C182.224 32.2587 181.707 31.912 180.672 31.912H178.576V34.024ZM180.864 37.544C181.963 37.544 182.512 37.1867 182.512 36.472C182.512 36.0987 182.384 35.8213 182.128 35.64C181.872 35.448 181.472 35.352 180.928 35.352H178.576V37.544H180.864ZM189.762 30.36C191.021 30.36 191.981 30.664 192.642 31.272C193.314 31.8693 193.65 32.776 193.65 33.992V39H191.762V37.96C191.517 38.3333 191.165 38.6213 190.706 38.824C190.258 39.016 189.714 39.112 189.074 39.112C188.434 39.112 187.874 39.0053 187.394 38.792C186.914 38.568 186.541 38.264 186.274 37.88C186.018 37.4853 185.89 37.0427 185.89 36.552C185.89 35.784 186.173 35.1707 186.738 34.712C187.314 34.2427 188.216 34.008 189.442 34.008H191.65V33.88C191.65 33.2827 191.469 32.824 191.106 32.504C190.754 32.184 190.226 32.024 189.522 32.024C189.042 32.024 188.568 32.0987 188.098 32.248C187.64 32.3973 187.25 32.6053 186.93 32.872L186.146 31.416C186.594 31.0747 187.133 30.8133 187.762 30.632C188.392 30.4507 189.058 30.36 189.762 30.36ZM189.49 37.656C189.992 37.656 190.434 37.544 190.818 37.32C191.213 37.0853 191.49 36.7547 191.65 36.328V35.336H189.586C188.434 35.336 187.858 35.7147 187.858 36.472C187.858 36.8347 188.002 37.1227 188.29 37.336C188.578 37.5493 188.978 37.656 189.49 37.656ZM200.861 30.36C201.693 30.36 202.435 30.5413 203.085 30.904C203.747 31.2667 204.264 31.7787 204.637 32.44C205.011 33.1013 205.197 33.864 205.197 34.728C205.197 35.592 205.011 36.36 204.637 37.032C204.264 37.6933 203.747 38.2053 203.085 38.568C202.435 38.9307 201.693 39.112 200.861 39.112C199.709 39.112 198.797 38.728 198.125 37.96V42.104H196.125V30.456H198.029V31.576C198.36 31.1707 198.765 30.8667 199.245 30.664C199.736 30.4613 200.275 30.36 200.861 30.36ZM200.637 37.4C201.373 37.4 201.976 37.1547 202.445 36.664C202.925 36.1733 203.165 35.528 203.165 34.728C203.165 33.928 202.925 33.2827 202.445 32.792C201.976 32.3013 201.373 32.056 200.637 32.056C200.157 32.056 199.725 32.168 199.341 32.392C198.957 32.6053 198.653 32.9147 198.429 33.32C198.205 33.7253 198.093 34.1947 198.093 34.728C198.093 35.2613 198.205 35.7307 198.429 36.136C198.653 36.5413 198.957 36.856 199.341 37.08C199.725 37.2933 200.157 37.4 200.637 37.4Z" fill="#2B2B2B"/>
</svg>
