<svg width="111" height="46" viewBox="0 0 111 46" fill="none" xmlns="http://www.w3.org/2000/svg">
<rect width="33.3333" height="22.2222" rx="2" fill="white"/>
<path d="M19.245 24.7555C17.6154 24.7555 16.1487 24.4148 14.845 23.7333C13.5561 23.037 12.5413 22.0741 11.8006 20.8444C11.0598 19.6148 10.6895 18.2222 10.6895 16.6666C10.6895 15.1111 11.0598 13.7185 11.8006 12.4889C12.5413 11.2592 13.5561 10.3037 14.845 9.6222C16.1487 8.92591 17.6154 8.57776 19.245 8.57776C20.6672 8.57776 21.9487 8.82961 23.0895 9.33331C24.2302 9.83702 25.1783 10.5629 25.9339 11.5111L23.1339 14.0444C22.1265 12.8296 20.9043 12.2222 19.4672 12.2222C18.6228 12.2222 17.8672 12.4074 17.2006 12.7778C16.5487 13.1481 16.0376 13.6741 15.6672 14.3555C15.3117 15.0222 15.1339 15.7926 15.1339 16.6666C15.1339 17.5407 15.3117 18.3185 15.6672 19C16.0376 19.6666 16.5487 20.1852 17.2006 20.5555C17.8672 20.9259 18.6228 21.1111 19.4672 21.1111C20.9043 21.1111 22.1265 20.5037 23.1339 19.2889L25.9339 21.8222C25.1783 22.7704 24.2302 23.4963 23.0895 24C21.9487 24.5037 20.6672 24.7555 19.245 24.7555Z" fill="white"/>
<path d="M34.2105 18.4889H32.2105V24.4444H27.8327V8.88887H32.2105V14.9333H34.3216L38.0327 8.88887H42.6549L37.7882 16.4L42.6993 24.4444H37.7438L34.2105 18.4889Z" fill="white"/>
<path d="M59.2575 8.88887L52.8131 20.9111C52.1316 22.2 51.2945 23.1778 50.302 23.8444C49.3242 24.5111 48.2501 24.8444 47.0797 24.8444C46.2205 24.8444 45.302 24.6518 44.3242 24.2666L45.3686 21.0222C45.976 21.2 46.4945 21.2889 46.9242 21.2889C47.3538 21.2889 47.7316 21.1926 48.0575 21C48.3983 20.8074 48.7094 20.5037 48.9908 20.0889L42.9464 8.88887H47.5908L51.2131 16.4L54.9686 8.88887H59.2575Z" fill="white"/>
<path d="M75.269 8.88887V24.4444H70.9134V12.3778H65.0023V24.4444H60.669V8.88887H75.269Z" fill="white"/>
<path d="M84.8832 18.4889H82.8832V24.4444H78.5054V8.88887H82.8832V14.9333H84.9943L88.7054 8.88887H93.3276L88.461 16.4L93.3721 24.4444H88.4165L84.8832 18.4889Z" fill="white"/>
<path d="M105.148 21.4222H98.5702L97.348 24.4444H92.8591L99.7257 8.88887H104.059L110.948 24.4444H106.37L105.148 21.4222ZM103.859 18.1778L101.859 13.2L99.8591 18.1778H103.859Z" fill="white"/>
<mask id="mask0" mask-type="alpha" maskUnits="userSpaceOnUse" x="0" y="0" width="34" height="23">
<rect width="33.3333" height="22.2222" fill="white"/>
</mask>
<g mask="url(#mask0)">
<path d="M19.245 24.7555C17.6154 24.7555 16.1487 24.4148 14.845 23.7333C13.5561 23.037 12.5413 22.0741 11.8006 20.8444C11.0598 19.6148 10.6895 18.2222 10.6895 16.6666C10.6895 15.1111 11.0598 13.7185 11.8006 12.4889C12.5413 11.2592 13.5561 10.3037 14.845 9.6222C16.1487 8.92591 17.6154 8.57776 19.245 8.57776C20.6672 8.57776 21.9487 8.82961 23.0895 9.33331C24.2302 9.83702 25.1783 10.5629 25.9339 11.5111L23.1339 14.0444C22.1265 12.8296 20.9043 12.2222 19.4672 12.2222C18.6228 12.2222 17.8672 12.4074 17.2006 12.7778C16.5487 13.1481 16.0376 13.6741 15.6672 14.3555C15.3117 15.0222 15.1339 15.7926 15.1339 16.6666C15.1339 17.5407 15.3117 18.3185 15.6672 19C16.0376 19.6666 16.5487 20.1852 17.2006 20.5555C17.8672 20.9259 18.6228 21.1111 19.4672 21.1111C20.9043 21.1111 22.1265 20.5037 23.1339 19.2889L25.9339 21.8222C25.1783 22.7704 24.2302 23.4963 23.0895 24C21.9487 24.5037 20.6672 24.7555 19.245 24.7555Z" fill="#1E1E1E"/>
<path d="M34.2105 18.4889H32.2105V24.4444H27.8327V8.88887H32.2105V14.9333H34.3216L38.0327 8.88887H42.6549L37.7882 16.4L42.6993 24.4444H37.7438L34.2105 18.4889Z" fill="#1E1E1E"/>
</g>
<path d="M5.62669 43.4399C4.69336 43.4399 3.84891 43.2354 3.09336 42.8266C2.34669 42.4088 1.76003 41.8399 1.33336 41.1199C0.906693 40.391 0.693359 39.5732 0.693359 38.6666C0.693359 37.7599 0.906693 36.9466 1.33336 36.2266C1.76003 35.4977 2.35114 34.9288 3.10669 34.5199C3.86225 34.1021 4.70669 33.8932 5.64003 33.8932C6.36891 33.8932 7.03558 34.0177 7.64003 34.2666C8.24447 34.5066 8.76003 34.8666 9.18669 35.3466L8.32003 36.1866C7.6178 35.4488 6.74225 35.0799 5.69336 35.0799C5.00003 35.0799 4.37336 35.2354 3.81336 35.5466C3.25336 35.8577 2.81336 36.2888 2.49336 36.8399C2.18225 37.3821 2.02669 37.991 2.02669 38.6666C2.02669 39.3421 2.18225 39.9554 2.49336 40.5066C2.81336 41.0488 3.25336 41.4754 3.81336 41.7866C4.37336 42.0977 5.00003 42.2532 5.69336 42.2532C6.73336 42.2532 7.60891 41.8799 8.32003 41.1332L9.18669 41.9732C8.76003 42.4532 8.24003 42.8177 7.62669 43.0666C7.02225 43.3154 6.35558 43.4399 5.62669 43.4399Z" fill="#AFAFAF"/>
<path d="M13.557 40.3466H12.0903V43.3332H10.8103V36.2666H12.0903V39.2532H13.5837L15.877 36.2666H17.2503L14.5703 39.6666L17.437 43.3332H15.9303L13.557 40.3466Z" fill="#AFAFAF"/>
<path d="M24.6821 36.2666L21.2554 44.0399C20.9532 44.7599 20.5977 45.2666 20.1888 45.5599C19.7888 45.8532 19.3043 45.9999 18.7354 45.9999C18.3888 45.9999 18.051 45.9421 17.7221 45.8266C17.4021 45.7199 17.1354 45.5599 16.9221 45.3466L17.4688 44.3866C17.8332 44.7332 18.2554 44.9066 18.7354 44.9066C19.0466 44.9066 19.3043 44.8221 19.5088 44.6532C19.7221 44.4932 19.9132 44.2132 20.0821 43.8132L20.3088 43.3199L17.1888 36.2666H18.5221L20.9888 41.9199L23.4288 36.2666H24.6821Z" fill="#AFAFAF"/>
<path d="M32.5393 36.2666V43.3332H31.2593V37.3866H27.2726V43.3332H25.9926V36.2666H32.5393Z" fill="#AFAFAF"/>
<path d="M37.7627 40.3466H36.2961V43.3332H35.0161V36.2666H36.2961V39.2532H37.7894L40.0827 36.2666H41.4561L38.7761 39.6666L41.6427 43.3332H40.1361L37.7627 40.3466Z" fill="#AFAFAF"/>
<path d="M45.3746 36.1999C46.3524 36.1999 47.0991 36.4399 47.6146 36.9199C48.1391 37.3999 48.4013 38.1154 48.4013 39.0666V43.3332H47.1879V42.3999C46.9746 42.7288 46.6679 42.9821 46.2679 43.1599C45.8768 43.3288 45.4102 43.4132 44.8679 43.4132C44.0768 43.4132 43.4413 43.2221 42.9613 42.8399C42.4902 42.4577 42.2546 41.9554 42.2546 41.3332C42.2546 40.711 42.4813 40.2132 42.9346 39.8399C43.3879 39.4577 44.1079 39.2666 45.0946 39.2666H47.1213V39.0132C47.1213 38.4621 46.9613 38.0399 46.6413 37.7466C46.3213 37.4532 45.8502 37.3066 45.2279 37.3066C44.8102 37.3066 44.4013 37.3777 44.0013 37.5199C43.6013 37.6532 43.2635 37.8354 42.9879 38.0666L42.4546 37.1066C42.819 36.8132 43.2546 36.591 43.7613 36.4399C44.2679 36.2799 44.8057 36.1999 45.3746 36.1999ZM45.0813 42.4266C45.5702 42.4266 45.9924 42.3199 46.3479 42.1066C46.7035 41.8843 46.9613 41.5732 47.1213 41.1732V40.1866H45.1479C44.0635 40.1866 43.5213 40.551 43.5213 41.2799C43.5213 41.6354 43.6591 41.9154 43.9346 42.1199C44.2102 42.3243 44.5924 42.4266 45.0813 42.4266Z" fill="#AFAFAF"/>
<path d="M59.5536 37.3866H56.9669V43.3332H55.6869V37.3866H53.1002V36.2666H59.5536V37.3866Z" fill="#AFAFAF"/>
<path d="M66.9366 39.8399C66.9366 39.9377 66.9277 40.0666 66.9099 40.2266H61.1766C61.2566 40.8488 61.5277 41.351 61.9899 41.7332C62.461 42.1066 63.0433 42.2932 63.7366 42.2932C64.581 42.2932 65.261 42.0088 65.7766 41.4399L66.4833 42.2666C66.1633 42.6399 65.7633 42.9243 65.2832 43.1199C64.8121 43.3154 64.2833 43.4132 63.6966 43.4132C62.9499 43.4132 62.2877 43.2621 61.7099 42.9599C61.1321 42.6488 60.6833 42.2177 60.3633 41.6666C60.0521 41.1154 59.8966 40.4932 59.8966 39.7999C59.8966 39.1154 60.0477 38.4977 60.3499 37.9466C60.661 37.3954 61.0833 36.9688 61.6166 36.6666C62.1588 36.3554 62.7677 36.1999 63.4433 36.1999C64.1188 36.1999 64.7188 36.3554 65.2432 36.6666C65.7766 36.9688 66.1899 37.3954 66.4833 37.9466C66.7855 38.4977 66.9366 39.1288 66.9366 39.8399ZM63.4433 37.2799C62.8299 37.2799 62.3144 37.4666 61.8966 37.8399C61.4877 38.2132 61.2477 38.7021 61.1766 39.3066H65.7099C65.6388 38.711 65.3944 38.2266 64.9766 37.8532C64.5677 37.471 64.0566 37.2799 63.4433 37.2799Z" fill="#AFAFAF"/>
<path d="M73.1403 43.3332L71.1003 40.6266L69.0337 43.3332H67.607L70.3937 39.7199L67.7403 36.2666H69.167L71.1137 38.8132L73.047 36.2666H74.447L71.7803 39.7199L74.5937 43.3332H73.1403Z" fill="#AFAFAF"/>
<path d="M75.9405 36.2666H77.2205V39.2666H81.2472V36.2666H82.5272V43.3332H81.2472V40.3732H77.2205V43.3332H75.9405V36.2666Z" fill="#AFAFAF"/>
<path d="M85.0161 36.2666H86.2961V41.4132L90.6294 36.2666H91.7894V43.3332H90.5094V38.1866L86.1894 43.3332H85.0161V36.2666Z" fill="#AFAFAF"/>
<path d="M97.0205 40.3466H95.5539V43.3332H94.2739V36.2666H95.5539V39.2532H97.0472L99.3405 36.2666H100.714L98.0339 39.6666L100.901 43.3332H99.3939L97.0205 40.3466Z" fill="#AFAFAF"/>
<path d="M102.243 36.2666H103.523V41.4132L107.856 36.2666H109.016V43.3332H107.736V38.1866L103.416 43.3332H102.243V36.2666Z" fill="#AFAFAF"/>
</svg>
