<svg width="44" height="44" viewBox="0 0 44 44" fill="none" xmlns="http://www.w3.org/2000/svg">
<rect width="44" height="44" rx="8" fill="white"/>
<path d="M27.5001 11H16.5001C16.0834 11 15.6837 11.1656 15.389 11.4603C15.0943 11.755 14.9287 12.1547 14.9287 12.5714V31.4286C14.9287 31.8453 15.0943 32.245 15.389 32.5397C15.6837 32.8344 16.0834 33 16.5001 33H27.5001C27.9169 33 28.3166 32.8344 28.6113 32.5397C28.906 32.245 29.0716 31.8453 29.0716 31.4286V12.5714C29.0716 12.1547 28.906 11.755 28.6113 11.4603C28.3166 11.1656 27.9169 11 27.5001 11ZM22.7859 30.6429H21.2144C21.006 30.6429 20.8062 30.5601 20.6588 30.4127C20.5115 30.2654 20.4287 30.0655 20.4287 29.8571C20.4287 29.6488 20.5115 29.4489 20.6588 29.3016C20.8062 29.1542 21.006 29.0714 21.2144 29.0714H22.7859C22.9942 29.0714 23.1941 29.1542 23.3414 29.3016C23.4888 29.4489 23.5716 29.6488 23.5716 29.8571C23.5716 30.0655 23.4888 30.2654 23.3414 30.4127C23.1941 30.5601 22.9942 30.6429 22.7859 30.6429Z" fill="#1E1E1E"/>
</svg>
