<svg width="32" height="32" viewBox="0 0 32 32" fill="none" xmlns="http://www.w3.org/2000/svg">
<g clip-path="url(#clip0)">
<path d="M32 16C32 18.9741 31.1882 21.7593 29.7744 24.1458C28.894 25.6306 27.78 26.9617 26.4829 28.0874C23.7976 30.4182 20.3284 31.8694 16.5232 31.9915C16.3494 31.9973 16.175 32 16 32C15.825 32 15.6506 31.9973 15.4768 31.9915C11.6904 31.8701 8.23779 30.4333 5.55811 28.1235C4.21021 26.9617 3.05835 25.5784 2.15894 24.0312C0.786377 21.6711 0 18.927 0 16C0 13.1709 0.734131 10.5129 2.02246 8.20703C4.03076 4.61328 7.38477 1.87354 11.4023 0.670654C12.8582 0.234375 14.4019 0 16 0C17.5981 0 19.1418 0.234375 20.5977 0.670654C24.5884 1.86572 27.9248 4.57739 29.937 8.13574C31.2502 10.458 32 13.1416 32 16Z" fill="url(#paint0_linear)"/>
<mask id="mask0" mask-type="alpha" maskUnits="userSpaceOnUse" x="0" y="0" width="32" height="32">
<path d="M32 16C32 18.9741 31.1882 21.7593 29.7744 24.1458C28.894 25.6306 27.78 26.9617 26.4829 28.0874C23.7976 30.4182 20.3284 31.8694 16.5232 31.9915C16.3494 31.9973 16.175 32 16 32C15.825 32 15.6506 31.9973 15.4768 31.9915C11.6904 31.8701 8.23779 30.4333 5.55811 28.1235C4.21021 26.9617 3.05835 25.5784 2.15894 24.0312C0.786377 21.6711 0 18.927 0 16C0 13.1709 0.734131 10.5129 2.02246 8.20703C4.03076 4.61328 7.38477 1.87354 11.4023 0.670654C12.8582 0.234375 14.4019 0 16 0C17.5981 0 19.1418 0.234375 20.5977 0.670654C24.5884 1.86572 27.9248 4.57739 29.937 8.13574C31.2502 10.458 32 13.1416 32 16Z" fill="url(#paint1_linear)"/>
</mask>
<g mask="url(#mask0)">
<path d="M20 31.5L9.5 22.5C10.6667 23 13.1 24 13.5 24H17H18.5L22 22.5L23 20.5L23.5 17V12.5L21.5 8.5L34 18.5L31.5 30.5L20 31.5Z" fill="black" fill-opacity="0.14"/>
</g>
<path d="M16.0002 8.00771C12.7234 8.00771 9.61177 7.71645 8.42325 10.7643C7.93232 12.0231 8.00361 13.658 8.00361 15.9989C8.00361 18.053 7.93773 19.9836 8.42325 21.2325C9.60907 24.2822 12.746 23.99 15.9984 23.99C19.1362 23.99 22.3715 24.3165 23.5744 21.2325C24.0663 19.9611 23.9941 18.3506 23.9941 15.9989C23.9941 12.8771 24.1664 10.8617 22.6512 9.34859C21.1171 7.81564 19.0423 8.00771 15.9966 8.00771H16.0002ZM15.2837 9.44778C22.1188 9.43696 22.9888 8.6777 22.5086 19.2253C22.3381 22.9557 19.4954 22.5464 16.0011 22.5464C9.62982 22.5464 9.44662 22.3642 9.44662 15.9953C9.44662 9.55238 9.952 9.45139 15.2837 9.44598V9.44778ZM20.2688 10.7742C19.739 10.7742 19.3095 11.2035 19.3095 11.7328C19.3095 12.2621 19.739 12.6913 20.2688 12.6913C20.7985 12.6913 21.2281 12.2621 21.2281 11.7328C21.2281 11.2035 20.7985 10.7742 20.2688 10.7742ZM16.0002 11.8951C13.7323 11.8951 11.8941 13.7328 11.8941 15.9989C11.8941 18.2649 13.7323 20.1018 16.0002 20.1018C18.268 20.1018 20.1054 18.2649 20.1054 15.9989C20.1054 13.7328 18.268 11.8951 16.0002 11.8951ZM16.0002 13.3352C19.5243 13.3352 19.5288 18.6626 16.0002 18.6626C12.477 18.6626 12.4716 13.3352 16.0002 13.3352Z" fill="white"/>
</g>
<defs>
<linearGradient id="paint0_linear" x1="2.14853" y1="29.9152" x2="31.7987" y2="4.24828" gradientUnits="userSpaceOnUse">
<stop stop-color="#FFDD55"/>
<stop offset="0.5" stop-color="#FF543E"/>
<stop offset="1" stop-color="#C837AB"/>
</linearGradient>
<linearGradient id="paint1_linear" x1="2.14853" y1="29.9152" x2="31.7987" y2="4.24828" gradientUnits="userSpaceOnUse">
<stop stop-color="#FFDD55"/>
<stop offset="0.5" stop-color="#FF543E"/>
<stop offset="1" stop-color="#C837AB"/>
</linearGradient>
<clipPath id="clip0">
<rect width="32" height="32" fill="white"/>
</clipPath>
</defs>
</svg>
