<svg width="32" height="32" viewBox="0 0 32 32" fill="none" xmlns="http://www.w3.org/2000/svg">
<path d="M16 32C24.8366 32 32 24.8366 32 16C32 7.16344 24.8366 0 16 0C7.16344 0 0 7.16344 0 16C0 24.8366 7.16344 32 16 32Z" fill="#6F3FAA"/>
<path d="M22.9416 8.77767C19.0471 7.83704 15.1456 6.73679 11.1517 8.13467C8.56587 9.10435 8.56587 11.9057 8.67362 14.2761C8.67362 14.9225 7.91943 15.7845 8.24262 16.5387C8.88906 18.6936 9.42781 20.8485 11.6904 21.9259C12.0137 22.1414 11.6904 22.5724 11.9059 22.8956C11.7982 22.8956 11.5827 23.0034 11.5827 23.1111C11.5827 23.6275 11.8144 24.4175 11.6605 24.9267L18.5359 31.7992C25.604 30.6736 31.1282 24.92 31.9055 17.7417L22.9416 8.77767Z" fill="#512D84"/>
<path d="M24.4642 11.2453L24.459 11.2241C24.0315 9.49583 22.1041 7.64133 20.3341 7.25552L20.3141 7.25139C17.4513 6.70527 14.5485 6.70527 11.6862 7.25139L11.6656 7.25552C9.89627 7.64133 7.96884 9.49595 7.54077 11.2241L7.53602 11.2453C7.00752 13.6588 7.00752 16.1066 7.53602 18.5201L7.54077 18.5413C7.95065 20.1958 9.73446 21.9651 11.4384 22.4517V24.381C11.4384 25.0793 12.2893 25.4222 12.7732 24.9183L14.7279 22.8865C15.1519 22.9101 15.5761 22.9234 16.0001 22.9234C17.4412 22.9234 18.883 22.7871 20.3141 22.5141L20.334 22.51C22.104 22.1241 24.0314 20.2695 24.4589 18.5413L24.4641 18.5202C24.9926 16.1066 24.9926 13.659 24.4642 11.2453ZM22.9173 18.1702C22.6318 19.2978 21.1685 20.6995 20.0057 20.9585C18.4835 21.248 16.9492 21.3717 15.4165 21.3293C15.386 21.3284 15.3566 21.3403 15.3355 21.3621C15.1179 21.5854 13.9083 22.8273 13.9083 22.8273L12.3903 24.3853C12.2793 24.501 12.0843 24.4222 12.0843 24.2625V21.0665C12.0843 21.0137 12.0466 20.9689 11.9947 20.9586C11.9944 20.9585 11.9941 20.9585 11.9938 20.9585C10.8311 20.6995 9.36821 19.2977 9.08227 18.1701C8.60659 15.9885 8.60659 13.7769 9.08227 11.5953C9.36821 10.4677 10.8311 9.06595 11.9938 8.80695C14.6523 8.30133 17.3478 8.30133 20.0058 8.80695C21.1691 9.06595 22.6319 10.4677 22.9173 11.5953C23.3935 13.777 23.3935 15.9886 22.9173 18.1702Z" fill="white"/>
<path d="M18.5292 19.6454C18.3505 19.5911 18.1802 19.5547 18.0218 19.4891C16.3824 18.8089 14.8737 17.9314 13.6786 16.5864C12.999 15.8215 12.467 14.9579 12.0174 14.044C11.8042 13.6107 11.6245 13.1604 11.4413 12.7129C11.2743 12.3049 11.5203 11.8834 11.7793 11.5759C12.0223 11.2873 12.3352 11.0665 12.6739 10.9037C12.9383 10.7767 13.199 10.85 13.3922 11.074C13.8095 11.5585 14.193 12.0678 14.5034 12.6294C14.6943 12.9749 14.642 13.3971 14.2959 13.6322C14.2118 13.6893 14.1352 13.7564 14.0568 13.8209C13.9881 13.8775 13.9235 13.9346 13.8763 14.0112C13.7903 14.1512 13.7862 14.3165 13.8415 14.4689C14.2682 15.6414 14.9874 16.5533 16.1677 17.0445C16.3566 17.123 16.5462 17.2145 16.7638 17.1892C17.1282 17.1466 17.2462 16.7469 17.5016 16.538C17.7512 16.334 18.0702 16.3313 18.339 16.5014C18.6079 16.6717 18.8685 16.8543 19.1277 17.039C19.382 17.2202 19.6352 17.3974 19.8698 17.6041C20.0954 17.8028 20.1731 18.0634 20.046 18.333C19.8135 18.8268 19.4751 19.2375 18.987 19.4997C18.8492 19.5736 18.6846 19.5975 18.5292 19.6454C18.3505 19.5911 18.6846 19.5975 18.5292 19.6454Z" fill="white"/>
<path d="M16.0046 10.3392C18.1489 10.3993 19.9102 11.8224 20.2877 13.9424C20.352 14.3036 20.3749 14.6729 20.4035 15.0395C20.4156 15.1937 20.3282 15.3402 20.1618 15.3423C19.9899 15.3444 19.9126 15.2005 19.9014 15.0464C19.8793 14.7413 19.864 14.4347 19.8219 14.1322C19.6 12.5348 18.3262 11.2132 16.7362 10.9297C16.4969 10.887 16.2522 10.8758 16.0097 10.8504C15.8565 10.8343 15.6559 10.825 15.622 10.6345C15.5935 10.4749 15.7283 10.3477 15.8804 10.3395C15.9215 10.3371 15.9631 10.339 16.0046 10.3392C18.1491 10.3993 15.9631 10.339 16.0046 10.3392Z" fill="white"/>
<path d="M19.2632 14.5637C19.2597 14.5905 19.2578 14.6534 19.2421 14.7127C19.1852 14.9279 18.8587 14.9549 18.7837 14.7377C18.7613 14.6733 18.758 14.5999 18.7579 14.5305C18.7572 14.0764 18.6585 13.6226 18.4294 13.2274C18.194 12.8213 17.8342 12.4799 17.4124 12.2733C17.1573 12.1484 16.8815 12.0707 16.6018 12.0245C16.4797 12.0043 16.3562 11.9921 16.2333 11.9749C16.0845 11.9543 16.005 11.8594 16.0122 11.7128C16.0187 11.5754 16.1192 11.4765 16.2689 11.4851C16.761 11.5129 17.2363 11.6194 17.6739 11.8511C18.5635 12.3223 19.0718 13.0659 19.2202 14.0589C19.2269 14.104 19.2376 14.1485 19.241 14.1936C19.2494 14.305 19.2547 14.4166 19.2632 14.5637C19.2597 14.5904 19.2547 14.4166 19.2632 14.5637Z" fill="white"/>
<path d="M17.9299 14.5118C17.7505 14.515 17.6545 14.4156 17.6359 14.2513C17.6231 14.1366 17.6129 14.0204 17.5855 13.9088C17.5316 13.6889 17.4148 13.4853 17.2299 13.3506C17.1427 13.2871 17.0437 13.2408 16.9402 13.2108C16.8086 13.1727 16.6719 13.1832 16.5407 13.1511C16.3981 13.1161 16.3192 13.0006 16.3417 12.867C16.362 12.7452 16.4804 12.6502 16.6135 12.6599C17.4449 12.7199 18.039 13.1497 18.1239 14.1284C18.1299 14.1975 18.1369 14.2704 18.1216 14.3366C18.0952 14.4496 18.0115 14.5063 17.9299 14.5118C17.7504 14.5149 18.0115 14.5063 17.9299 14.5118Z" fill="white"/>
<path d="M24.4641 11.2453L24.4589 11.2241C24.2192 10.2553 23.5081 9.24696 22.6177 8.47971L21.414 9.54646C22.1298 10.1168 22.743 10.9068 22.9173 11.5952C23.3935 13.7769 23.3935 15.9885 22.9173 18.1702C22.6319 19.2978 21.1684 20.6995 20.0057 20.9585C18.4835 21.248 16.9492 21.3717 15.4165 21.3293C15.386 21.3284 15.3567 21.3403 15.3355 21.3621C15.1179 21.5854 13.9083 22.8273 13.9083 22.8273L12.3903 24.3853C12.2793 24.501 12.0843 24.4223 12.0843 24.2625V21.0665C12.0843 21.0137 12.0466 20.9689 11.9947 20.9586C11.9944 20.9586 11.9942 20.9585 11.9939 20.9585C11.333 20.8113 10.5756 20.2949 9.99211 19.6697L8.80273 20.7236C9.54555 21.5317 10.5036 22.185 11.4382 22.4518V24.3811C11.4382 25.0794 12.2892 25.4223 12.773 24.9184L14.7277 22.8866C15.1517 22.9103 15.5758 22.9235 16 22.9235C17.441 22.9235 18.8828 22.7872 20.3139 22.5142L20.3339 22.5101C22.1039 22.1243 24.0312 20.2698 24.4587 18.5415L24.464 18.5204C24.9925 16.1066 24.9925 13.659 24.4641 11.2453Z" fill="#D1D1D1"/>
<path d="M18.5298 19.6454C18.6852 19.5976 18.351 19.5911 18.5298 19.6454V19.6454Z" fill="white"/>
<path d="M19.8705 17.604C19.636 17.3974 19.3827 17.2201 19.1284 17.0389C18.8693 16.8542 18.6087 16.6716 18.3397 16.5013C18.0709 16.3312 17.752 16.3339 17.5023 16.5379C17.247 16.7467 17.129 17.1465 16.7646 17.1891C16.547 17.2144 16.3573 17.1229 16.1685 17.0444C15.4423 16.7422 14.8913 16.2802 14.4748 15.6969L13.5898 16.4813C13.6199 16.5161 13.6486 16.5519 13.6792 16.5862C14.8743 17.9313 16.3831 18.8088 18.0224 19.489C18.1806 19.5546 18.351 19.5911 18.5298 19.6453C18.351 19.591 18.6853 19.5975 18.5298 19.6453C18.6853 19.5975 18.8498 19.5734 18.9877 19.4996C19.4759 19.2373 19.8142 18.8266 20.0467 18.3328C20.1739 18.0633 20.0962 17.8027 19.8705 17.604Z" fill="#D1D1D1"/>
<path d="M16.0095 10.3395C16.0078 10.3395 16.0062 10.3393 16.0045 10.3393C16.0028 10.3392 16.0049 10.3393 16.0095 10.3395Z" fill="white"/>
<path d="M16.0049 10.3391C16.0067 10.3391 16.0084 10.3393 16.0103 10.3393C16.1293 10.3435 18.0648 10.3968 16.0049 10.3391Z" fill="white"/>
<path d="M19.0795 11.6148L18.7021 11.9492C19.2951 12.5261 19.704 13.2907 19.8208 14.132C19.8628 14.4347 19.8783 14.7411 19.9003 15.0462C19.9115 15.2004 19.9888 15.3442 20.1608 15.3422C20.3272 15.3402 20.4145 15.1937 20.4025 15.0395C20.3738 14.6728 20.351 14.3035 20.2867 13.9423C20.1215 13.0143 19.691 12.2198 19.0795 11.6148Z" fill="#D1D1D1"/>
<path d="M19.2196 14.0586C19.1116 13.335 18.8114 12.7445 18.3128 12.2946L17.9365 12.6281C18.1311 12.8008 18.2994 13.0036 18.429 13.2273C18.6581 13.6225 18.7568 14.0762 18.7575 14.5303C18.7576 14.5997 18.761 14.6731 18.7833 14.7376C18.8585 14.955 19.1848 14.928 19.2417 14.7126C19.2575 14.6533 19.2593 14.5903 19.2628 14.5636C19.2593 14.5905 19.2542 14.4166 19.2628 14.5636C19.2542 14.4166 19.249 14.305 19.2405 14.1935C19.2372 14.1481 19.2264 14.1036 19.2196 14.0586Z" fill="#D1D1D1"/>
<path d="M19.2635 14.5637C19.255 14.4166 19.2599 14.5904 19.2635 14.5637V14.5637Z" fill="white"/>
<path d="M17.9292 14.5118C17.932 14.5116 17.9347 14.5101 17.9374 14.5098C17.9298 14.5098 17.9182 14.51 17.9062 14.5105C17.914 14.5106 17.9211 14.5118 17.9292 14.5118Z" fill="white"/>
<path d="M17.9296 14.5114C17.9216 14.5115 17.9145 14.5103 17.9067 14.51C17.8679 14.5111 17.8278 14.5132 17.9296 14.5114Z" fill="white"/>
<path d="M17.9379 14.5098C17.9351 14.5101 17.9324 14.5116 17.9297 14.5118C17.9507 14.5103 17.9489 14.5098 17.9379 14.5098Z" fill="white"/>
<path d="M17.551 12.9703L17.168 13.3098C17.1891 13.3226 17.2098 13.336 17.2298 13.3505C17.4147 13.4852 17.5315 13.6888 17.5854 13.9087C17.6128 14.0203 17.6229 14.1364 17.6358 14.2512C17.6535 14.4082 17.7427 14.5048 17.9069 14.5104C17.9188 14.5101 17.9305 14.5098 17.938 14.5098C18.017 14.501 18.0962 14.4457 18.1215 14.3364C18.1368 14.2703 18.1298 14.1973 18.1237 14.1282C18.0761 13.581 17.8692 13.2056 17.551 12.9703Z" fill="#D1D1D1"/>
</svg>
