<svg width="32" height="32" viewBox="0 0 32 32" fill="none" xmlns="http://www.w3.org/2000/svg">
<path d="M16 32C24.8366 32 32 24.8366 32 16C32 7.16344 24.8366 0 16 0C7.16344 0 0 7.16344 0 16C0 24.8366 7.16344 32 16 32Z" fill="#4D76A1"/>
<path d="M25.9997 12C22.1052 11.0594 21.4935 17.6021 17.4997 19C14.9138 19.9696 11.4744 15.3713 11.5821 17.7416C11.5821 18.3881 8.67649 14.2458 8.99968 15C9.64612 17.1548 7.99972 14.5 7.49969 14.5C6.99967 14.5 7.7842 17.1767 7.9997 17.5C7.89195 17.5 9.49969 19.3922 9.49969 19.5C9.49969 20.0164 10.1536 19.9907 9.99969 20.5L18.5353 31.7992C25.6034 30.6736 31.1277 24.92 31.9049 17.7416L25.9997 12Z" fill="#305F8F"/>
<path fill-rule="evenodd" clip-rule="evenodd" d="M15.3952 23.0174H16.651C16.651 23.0174 17.0304 22.9758 17.224 22.767C17.4023 22.5753 17.3966 22.2154 17.3966 22.2154C17.3966 22.2154 17.372 20.5303 18.1541 20.2822C18.925 20.0378 19.915 21.9108 20.9643 22.631C21.7578 23.176 22.3607 23.0565 22.3607 23.0565L25.1664 23.0174C25.1664 23.0174 26.6341 22.927 25.9382 21.773C25.8812 21.6786 25.5329 20.9194 23.8521 19.3593C22.0929 17.7264 22.3285 17.9905 24.4477 15.166C25.7383 13.4459 26.2542 12.3957 26.0931 11.9459C25.9393 11.5175 24.9901 11.6308 24.9901 11.6308L21.8311 11.6505C21.8311 11.6505 21.5969 11.6185 21.4232 11.7223C21.2535 11.8242 21.1443 12.0615 21.1443 12.0615C21.1443 12.0615 20.6443 13.3926 19.9775 14.5246C18.5708 16.9132 18.0084 17.0393 17.7785 16.891C17.2437 16.5453 17.3772 15.5023 17.3772 14.7613C17.3772 12.4465 17.7283 11.4813 16.6935 11.2315C16.3501 11.1485 16.0974 11.0937 15.2192 11.0849C14.0921 11.0732 13.138 11.0883 12.5978 11.353C12.2385 11.529 11.9612 11.9211 12.1301 11.9437C12.3388 11.9716 12.8117 12.0712 13.0624 12.4126C13.3862 12.8529 13.3747 13.8421 13.3747 13.8421C13.3747 13.8421 13.5607 16.567 12.9404 16.9055C12.5145 17.1377 11.9304 16.6637 10.6763 14.4966C10.0337 13.3866 9.54859 12.1596 9.54859 12.1596C9.54859 12.1596 9.45504 11.9303 9.28819 11.8076C9.08568 11.659 8.80275 11.6117 8.80275 11.6117L5.80086 11.6313C5.80086 11.6313 5.35022 11.6439 5.1848 11.8398C5.03763 12.0141 5.1731 12.3746 5.1731 12.3746C5.1731 12.3746 7.52327 17.873 10.1843 20.6439C12.6243 23.1843 15.3952 23.0174 15.3952 23.0174Z" fill="white"/>
</svg>
