<svg width="44" height="44" viewBox="0 0 44 44" fill="none" xmlns="http://www.w3.org/2000/svg">
<rect width="44" height="44" rx="8" fill="white"/>
<g clip-path="url(#clip0)">
<path fill-rule="evenodd" clip-rule="evenodd" d="M22 11C19.8244 11 17.6977 11.6451 15.8887 12.8538C14.0798 14.0625 12.6699 15.7805 11.8373 17.7905C11.0048 19.8005 10.7869 22.0122 11.2114 24.146C11.6358 26.2798 12.6835 28.2398 14.2218 29.7782C15.7602 31.3166 17.7202 32.3642 19.854 32.7886C21.9878 33.2131 24.1995 32.9952 26.2095 32.1627C28.2195 31.3301 29.9375 29.9202 31.1462 28.1113C32.3549 26.3023 33 24.1756 33 22C33 19.0826 31.8411 16.2847 29.7782 14.2218C27.7153 12.1589 24.9174 11 22 11V11ZM19.0208 27.2708C19.0208 27.5747 18.9001 27.8662 18.6852 28.0811C18.4703 28.2959 18.1789 28.4167 17.875 28.4167C17.5711 28.4167 17.2797 28.2959 17.0648 28.0811C16.8499 27.8662 16.7292 27.5747 16.7292 27.2708V23.6042C16.7292 23.3003 16.8499 23.0088 17.0648 22.7939C17.2797 22.5791 17.5711 22.4583 17.875 22.4583C18.1789 22.4583 18.4703 22.5791 18.6852 22.7939C18.9001 23.0088 19.0208 23.3003 19.0208 23.6042V27.2708ZM23.1458 27.2708C23.1458 27.5747 23.0251 27.8662 22.8102 28.0811C22.5953 28.2959 22.3039 28.4167 22 28.4167C21.6961 28.4167 21.4047 28.2959 21.1898 28.0811C20.9749 27.8662 20.8542 27.5747 20.8542 27.2708V16.7108C20.8542 16.4069 20.9749 16.1155 21.1898 15.9006C21.4047 15.6857 21.6961 15.565 22 15.565C22.3039 15.565 22.5953 15.6857 22.8102 15.9006C23.0251 16.1155 23.1458 16.4069 23.1458 16.7108V27.2708ZM27.2708 27.2708C27.2708 27.5747 27.1501 27.8662 26.9352 28.0811C26.7203 28.2959 26.4289 28.4167 26.125 28.4167C25.8211 28.4167 25.5297 28.2959 25.3148 28.0811C25.0999 27.8662 24.9792 27.5747 24.9792 27.2708V20.8542C24.9792 20.5503 25.0999 20.2588 25.3148 20.0439C25.5297 19.8291 25.8211 19.7083 26.125 19.7083C26.4289 19.7083 26.7203 19.8291 26.9352 20.0439C27.1501 20.2588 27.2708 20.5503 27.2708 20.8542V27.2708Z" fill="#1E1E1E"/>
</g>
<defs>
<clipPath id="clip0">
<rect width="22" height="22" fill="white" transform="translate(11 11)"/>
</clipPath>
</defs>
</svg>
