<svg width="44" height="44" viewBox="0 0 44 44" fill="none" xmlns="http://www.w3.org/2000/svg">
<rect width="44" height="44" rx="8" fill="white"/>
<g clip-path="url(#clip0)">
<path d="M15.0872 15.4608L24.4057 13.0669L23.9123 12.1281C23.5894 11.5178 22.8019 11.2658 22.1536 11.5697L13.8115 15.4608H15.0872Z" fill="#1E1E1E"/>
<path d="M27.2985 13.1359C27.1831 13.1359 27.0675 13.1508 26.952 13.1804L24.7629 13.7437L18.0771 15.4607H25.6658H28.9732L28.5637 14.0476C28.4062 13.4966 27.876 13.1359 27.2985 13.1359Z" fill="#1E1E1E"/>
<path d="M30.3409 16.3255H30.0417H29.6348H29.228H26.1227H14.7121H13.2159H11.9559H11.7223H10.9401C10.5254 16.3255 10.1552 16.5058 9.91374 16.7899C9.8035 16.9209 9.7195 17.0716 9.67225 17.2371C9.64337 17.3409 9.625 17.4496 9.625 17.5607V17.709V19.1172V31.324C9.625 32.0059 10.213 32.5593 10.9375 32.5593H30.3383C31.0628 32.5593 31.6508 32.0059 31.6508 31.324V27.8776H23.8626C22.6315 27.8776 21.6314 26.9364 21.6314 25.7777V24.6462V24.2633V23.8803V23.0305C21.6314 22.4623 21.8729 21.9459 22.264 21.568C22.6105 21.2319 23.0751 21.0047 23.5949 20.9478C23.6815 20.938 23.7707 20.933 23.86 20.933H30.5588H30.9657H31.3725H31.6508V17.5607C31.6534 16.8789 31.0654 16.3255 30.3409 16.3255Z" fill="#1E1E1E"/>
<path d="M32.5718 22.1139C32.4405 22.0003 32.2857 21.9138 32.1124 21.857C31.9785 21.815 31.8368 21.7903 31.6872 21.7903H31.6531H31.6268H31.2199H29.7526H23.8623C23.1378 21.7903 22.5498 22.3437 22.5498 23.0255V23.6407V24.0236V24.4065V25.7752C22.5498 26.4571 23.1378 27.0105 23.8623 27.0105H31.6531H31.6872C31.8368 27.0105 31.9786 26.9858 32.1124 26.9438C32.2857 26.8894 32.4405 26.8005 32.5718 26.6868C32.8343 26.462 32.9997 26.1359 32.9997 25.7752V23.0255C32.9997 22.6648 32.8343 22.3387 32.5718 22.1139ZM26.6027 24.6462C26.6027 24.9871 26.3087 25.2638 25.9465 25.2638H25.5107C25.1485 25.2638 24.8545 24.9871 24.8545 24.6462V24.2361C24.8545 24.0384 24.9516 23.863 25.1065 23.7518C25.2194 23.6703 25.3585 23.6184 25.5107 23.6184H25.621H25.9465C26.3087 23.6184 26.6027 23.8951 26.6027 24.2361V24.6462Z" fill="#1E1E1E"/>
</g>
<defs>
<clipPath id="clip0">
<rect width="22" height="22" fill="white" transform="translate(11 11)"/>
</clipPath>
</defs>
</svg>
